<mxfile host="app.diagrams.net" modified="2024-02-22T13:09:55.001Z" agent="Mozilla/5.0 (Windows NT 10.0; Win64; x64; rv:120.0) Gecko/20100101 Firefox/120.0" etag="iqrp3Dyum9yrxnvlflwm" version="23.0.2" type="device">
  <diagram name="Page-1" id="13e1069c-82ec-6db2-03f1-153e76fe0fe0">
    <mxGraphModel dx="1050" dy="511" grid="1" gridSize="10" guides="1" tooltips="1" connect="1" arrows="1" fold="1" page="1" pageScale="1" pageWidth="1100" pageHeight="850" background="none" math="0" shadow="0">
      <root>
        <mxCell id="0" />
        <mxCell id="1" parent="0" />
        <mxCell id="7baba1c4bc27f4b0-11" value="int n" style="html=1;verticalAlign=bottom;endArrow=block;labelBackgroundColor=none;fontFamily=Verdana;fontSize=12;edgeStyle=elbowEdgeStyle;elbow=vertical;exitX=1;exitY=0;exitDx=0;exitDy=5;exitPerimeter=0;entryX=0.5;entryY=0;entryDx=0;entryDy=0;" parent="1" source="EsR4Vg0_q4SP54D6hTx2-8" target="EsR4Vg0_q4SP54D6hTx2-18" edge="1">
          <mxGeometry relative="1" as="geometry">
            <mxPoint x="150" y="180" as="sourcePoint" />
            <mxPoint x="400" y="192" as="targetPoint" />
            <Array as="points">
              <mxPoint x="280" y="175" />
            </Array>
          </mxGeometry>
        </mxCell>
        <mxCell id="EsR4Vg0_q4SP54D6hTx2-8" value="" style="html=1;points=[[0,0,0,0,5],[0,1,0,0,-5],[1,0,0,0,5],[1,1,0,0,-5]];perimeter=orthogonalPerimeter;outlineConnect=0;targetShapes=umlLifeline;portConstraint=eastwest;newEdgeStyle={&quot;curved&quot;:0,&quot;rounded&quot;:0};" vertex="1" parent="1">
          <mxGeometry x="140" y="170" width="10" height="460" as="geometry" />
        </mxCell>
        <mxCell id="EsR4Vg0_q4SP54D6hTx2-15" value="&lt;div&gt;fibonacciIterative&lt;/div&gt;" style="shape=umlLifeline;perimeter=lifelinePerimeter;whiteSpace=wrap;html=1;container=1;dropTarget=0;collapsible=0;recursiveResize=0;outlineConnect=0;portConstraint=eastwest;newEdgeStyle={&quot;curved&quot;:0,&quot;rounded&quot;:0};" vertex="1" parent="1">
          <mxGeometry x="95" y="90" width="100" height="80" as="geometry" />
        </mxCell>
        <mxCell id="EsR4Vg0_q4SP54D6hTx2-18" value="n&amp;lt;=1" style="rhombus;whiteSpace=wrap;html=1;" vertex="1" parent="1">
          <mxGeometry x="355" y="200" width="80" height="40" as="geometry" />
        </mxCell>
        <mxCell id="EsR4Vg0_q4SP54D6hTx2-19" value="" style="edgeStyle=orthogonalEdgeStyle;html=1;align=left;verticalAlign=bottom;endArrow=open;endSize=8;strokeColor=#0D0000;rounded=0;" edge="1" source="EsR4Vg0_q4SP54D6hTx2-18" parent="1">
          <mxGeometry x="-1" relative="1" as="geometry">
            <mxPoint x="535" y="290" as="targetPoint" />
          </mxGeometry>
        </mxCell>
        <mxCell id="EsR4Vg0_q4SP54D6hTx2-35" style="edgeStyle=orthogonalEdgeStyle;rounded=0;orthogonalLoop=1;jettySize=auto;html=1;exitX=0.5;exitY=1;exitDx=0;exitDy=0;" edge="1" parent="1" source="EsR4Vg0_q4SP54D6hTx2-22">
          <mxGeometry relative="1" as="geometry">
            <mxPoint x="535" y="460" as="targetPoint" />
          </mxGeometry>
        </mxCell>
        <mxCell id="EsR4Vg0_q4SP54D6hTx2-22" value="i &amp;lt; n || i &amp;gt; 1" style="rhombus;whiteSpace=wrap;html=1;" vertex="1" parent="1">
          <mxGeometry x="460" y="290" width="150" height="100" as="geometry" />
        </mxCell>
        <mxCell id="EsR4Vg0_q4SP54D6hTx2-30" value="return fib" style="text;html=1;align=center;verticalAlign=middle;resizable=0;points=[];autosize=1;strokeColor=none;fillColor=none;" vertex="1" parent="1">
          <mxGeometry x="275" y="308" width="70" height="30" as="geometry" />
        </mxCell>
        <mxCell id="EsR4Vg0_q4SP54D6hTx2-45" value="" style="html=1;verticalAlign=bottom;endArrow=open;dashed=1;endSize=8;curved=0;rounded=0;exitX=0;exitY=0.5;exitDx=0;exitDy=0;" edge="1" parent="1" source="EsR4Vg0_q4SP54D6hTx2-22">
          <mxGeometry relative="1" as="geometry">
            <mxPoint x="230" y="339.5" as="sourcePoint" />
            <mxPoint x="150" y="339.5" as="targetPoint" />
          </mxGeometry>
        </mxCell>
        <mxCell id="EsR4Vg0_q4SP54D6hTx2-47" value="return n" style="html=1;verticalAlign=bottom;endArrow=open;dashed=1;endSize=8;curved=0;rounded=0;" edge="1" parent="1" target="EsR4Vg0_q4SP54D6hTx2-8">
          <mxGeometry relative="1" as="geometry">
            <mxPoint x="350" y="220" as="sourcePoint" />
            <mxPoint x="160" y="220" as="targetPoint" />
          </mxGeometry>
        </mxCell>
        <mxCell id="EsR4Vg0_q4SP54D6hTx2-64" style="edgeStyle=orthogonalEdgeStyle;rounded=0;orthogonalLoop=1;jettySize=auto;html=1;entryX=1;entryY=0.5;entryDx=0;entryDy=0;" edge="1" parent="1" target="EsR4Vg0_q4SP54D6hTx2-22">
          <mxGeometry relative="1" as="geometry">
            <mxPoint x="730" y="330" as="targetPoint" />
            <mxPoint x="690" y="520" as="sourcePoint" />
            <Array as="points">
              <mxPoint x="760" y="520" />
              <mxPoint x="760" y="340" />
            </Array>
          </mxGeometry>
        </mxCell>
        <mxCell id="EsR4Vg0_q4SP54D6hTx2-65" value="&lt;div&gt;loop continious&lt;/div&gt;" style="edgeLabel;html=1;align=center;verticalAlign=middle;resizable=0;points=[];" vertex="1" connectable="0" parent="EsR4Vg0_q4SP54D6hTx2-64">
          <mxGeometry x="0.445" y="-4" relative="1" as="geometry">
            <mxPoint x="-161" y="74" as="offset" />
          </mxGeometry>
        </mxCell>
        <mxCell id="EsR4Vg0_q4SP54D6hTx2-59" value="fib" style="shape=umlFrame;whiteSpace=wrap;html=1;pointerEvents=0;" vertex="1" parent="1">
          <mxGeometry x="460" y="460" width="220" height="150" as="geometry" />
        </mxCell>
        <mxCell id="EsR4Vg0_q4SP54D6hTx2-61" value="no" style="text;html=1;align=center;verticalAlign=middle;resizable=0;points=[];autosize=1;strokeColor=none;fillColor=none;" vertex="1" parent="1">
          <mxGeometry x="450" y="198" width="40" height="30" as="geometry" />
        </mxCell>
        <mxCell id="EsR4Vg0_q4SP54D6hTx2-66" value="&lt;div style=&quot;background-color: rgb(255, 255, 255); color: rgb(8, 8, 8); font-family: &amp;quot;JetBrains Mono&amp;quot;, monospace;&quot;&gt;int &lt;span style=&quot;color:#000000;&quot;&gt;temp &lt;/span&gt;= &lt;span style=&quot;color:#000000;&quot;&gt;fib&lt;/span&gt;;&lt;br&gt;&lt;span style=&quot;color:#000000;&quot;&gt;fib &lt;/span&gt;+= &lt;span style=&quot;color:#000000;&quot;&gt;prevFib&lt;/span&gt;;&lt;br&gt;&lt;span style=&quot;color:#000000;&quot;&gt;prevFib &lt;/span&gt;= &lt;span style=&quot;color:#000000;&quot;&gt;temp&lt;/span&gt;;&lt;/div&gt;" style="text;html=1;align=center;verticalAlign=middle;resizable=0;points=[];autosize=1;strokeColor=none;fillColor=none;" vertex="1" parent="1">
          <mxGeometry x="500" y="500" width="120" height="60" as="geometry" />
        </mxCell>
      </root>
    </mxGraphModel>
  </diagram>
</mxfile>
